HIERARCHY
ROOT root
{
	OFFSET	0	13.1	24.9
	CHANNELS 6  Xposition Yposition Zposition Xrotation Yrotation Zrotation
	JOINT spine_1
	{
		OFFSET	0	9.99999	0
		CHANNELS 3  Xrotation Yrotation Zrotation
		JOINT spine_2
		{
			OFFSET	0	112	-10
			CHANNELS 3  Xrotation Yrotation Zrotation
			JOINT spine_3
			{
				OFFSET	0	206.5	19.3
				CHANNELS 3  Xrotation Yrotation Zrotation
				JOINT spine_4
				{
					OFFSET	0	110.4	14.6
					CHANNELS 3  Xrotation Yrotation Zrotation
					JOINT neck_1
					{
						OFFSET	0	71.8	-50.3
						CHANNELS 3  Xrotation Yrotation Zrotation
						JOINT neck_2
						{
							OFFSET	0	86.2	-25.8
							CHANNELS 3  Xrotation Yrotation Zrotation
							JOINT head_ee
							{
								OFFSET	0	179.8	-8.7
								CHANNELS 3  Xrotation Yrotation Zrotation
								End Site
								{
									OFFSET	1	0	0
								}
							}
						}
					}
					JOINT left_clavicle
					{
						OFFSET	-43.2	22.4	-70.8
						CHANNELS 3  Xrotation Yrotation Zrotation
						JOINT left_shoulder
						{
							OFFSET	-93.9	-5.79999	48.7
							CHANNELS 3  Xrotation Yrotation Zrotation
							JOINT left_elbow
							{
								OFFSET	-291.4	-30.8	15.2
								CHANNELS 3  Xrotation Yrotation Zrotation
								JOINT left_lowarm_twist
								{
									OFFSET	-110.7	-3.89999	13.6
									CHANNELS 3  Xrotation Yrotation Zrotation
									JOINT left_hand
									{
										OFFSET	-110.7	-3.89999	13.6
										CHANNELS 3  Xrotation Yrotation Zrotation
										JOINT left_ee
										{
											OFFSET	-80.8	-5.10001	12.1
											CHANNELS 3  Xrotation Yrotation Zrotation
											End Site
											{
												OFFSET	1	0	0
											}
										}
									}
								}
							}
						}
					}
					JOINT right_clavicle
					{
						OFFSET	43.2	22.4	-70.8
						CHANNELS 3  Xrotation Yrotation Zrotation
						JOINT right_shoulder
						{
							OFFSET	93.9	-5.79999	48.7
							CHANNELS 3  Xrotation Yrotation Zrotation
							JOINT right_elbow
							{
								OFFSET	291.4	-30.8	15.2
								CHANNELS 3  Xrotation Yrotation Zrotation
								JOINT right_lowarm_twist
								{
									OFFSET	110.7	-3.89999	13.6
									CHANNELS 3  Xrotation Yrotation Zrotation
									JOINT right_hand
									{
										OFFSET	110.7	-3.89999	13.6
										CHANNELS 3  Xrotation Yrotation Zrotation
										JOINT right_ee
										{
											OFFSET	80.8	-5.10001	12.1
											CHANNELS 3  Xrotation Yrotation Zrotation
											End Site
											{
												OFFSET	1	0	0
											}
										}
									}
								}
							}
						}
					}
				}
			}
		}
	}
	JOINT left_hip
	{
		OFFSET	-82.8	-127.5	0.300001
		CHANNELS 3  Xrotation Yrotation Zrotation
		JOINT left_knee
		{
			OFFSET	-28.2	-396.7	2.2
			CHANNELS 3  Xrotation Yrotation Zrotation
			JOINT left_ankle
			{
				OFFSET	-11.7	-411.3	35.4
				CHANNELS 3  Xrotation Yrotation Zrotation
				JOINT left_toes
				{
					OFFSET	0	-60	-88.6
					CHANNELS 3  Xrotation Yrotation Zrotation
					JOINT left_foot_ee
					{
						OFFSET	-22.5	-16.5	-42.2
						CHANNELS 3  Xrotation Yrotation Zrotation
						End Site
						{
							OFFSET	1	0	0
						}
					}
				}
			}
		}
	}
	JOINT right_hip
	{
		OFFSET	82.8	-127.5	0.300001
		CHANNELS 3  Xrotation Yrotation Zrotation
		JOINT right_knee
		{
			OFFSET	28.2	-396.7	2.2
			CHANNELS 3  Xrotation Yrotation Zrotation
			JOINT right_ankle
			{
				OFFSET	11.7	-411.3	35.4
				CHANNELS 3  Xrotation Yrotation Zrotation
				JOINT right_toes
				{
					OFFSET	0	-60	-88.6
					CHANNELS 3  Xrotation Yrotation Zrotation
					JOINT right_foot_ee
					{
						OFFSET	22.5	-16.5	-42.2
						CHANNELS 3  Xrotation Yrotation Zrotation
						End Site
						{
							OFFSET	1	0	0
						}
					}
				}
			}
		}
	}
}
MOTION
Frames: 5
Frame Time: 0.02
1395.81 708.459 -650.417 -179.098 -76.7208 -179.571 -0.183852 -0.118652 -0.873698 -0.183429 -0.0628183 -0.879477 -0.182227 0.126213 -0.872638 -0.183289 -0.013182 -0.881619 -6.31488 10.3497 2.98317 -6.27997 16.9974 4.99091 -0.0 0.0 -0.0 6.32596 24.0707 11.4365 9.16532 -39.3284 56.0211 2.58036 -51.9543 1.25741 -83.9787 -8.32403 5.20853 -3.60075 25.892 -9.93538 -0.0 0.0 -0.0 6.71804 20.6918 -12.1061 -29.3445 4.87484 -64.9459 0.975723 25.7961 -0.22344 7.68643 -0.206723 0.95936 -0.0588688 -12.0774 -4.60623 0.0 0.0 0.0 -10.8157 22.4697 3.47687 -23.8974 0.229047 3.63359 40.1713 -4.51433 -4.93916 -0.0936969 0.0 0.0 -0.0 0.0 -0.0 37.3663 14.1976 -5.85774 -6.38405 -0.209716 -0.956814 -15.8597 -20.1923 -2.42737 -37.5401 0.0 0.0 0.0 0.0 0.0 
1417.42 710.397 -644.035 -179.113 -76.6081 -179.606 -0.1083 -0.15132 -0.838068 -0.107915 -0.0976871 -0.845997 -0.106245 0.0838776 -0.847478 -0.107244 -0.0510134 -0.850089 -5.61391 10.2983 2.56247 -5.56331 17.1142 4.4674 -0.0 0.0 -0.0 5.89501 23.4337 10.8745 7.59188 -38.504 55.9987 2.49082 -50.9689 1.18738 -83.4924 -8.26296 5.21912 -3.50343 25.6647 -9.51844 -0.0 0.0 -0.0 6.83107 20.8316 -12.341 -28.8792 5.03696 -65.1733 0.994764 26.2325 -0.231792 7.72731 -0.207476 0.964528 0.060262 -12.3877 -5.48609 0.0 0.0 0.0 -11.5256 22.4157 3.48669 -24.4248 0.216933 3.71362 40.4772 -4.85869 -4.97022 0.161296 -0.0 -0.0 -0.0 0.0 -0.0 36.1742 14.3894 -5.10506 -6.78971 -0.21942 -1.01831 -16.4622 -20.1832 -2.52059 -37.5298 0.0 0.0 0.0 0.0 0.0 
1438.61 709.708 -641.099 -179.981 -76.9946 178.869 -0.113244 -0.17262 -0.605545 -0.11305 -0.133739 -0.615302 -0.111478 -0.000207486 -0.629668 -0.112017 -0.0996472 -0.621733 -5.12103 10.2688 2.26442 -5.05812 17.2145 4.0965 -0.0 0.0 -0.0 5.58536 22.9505 10.463 6.17666 -37.855 56.1971 2.42322 -50.196 1.13515 -83.1498 -8.21989 5.22626 -3.42938 25.4893 -9.201 -0.0 0.0 -0.0 6.91011 20.9138 -12.5067 -28.5439 5.14082 -65.3362 1.00829 26.5404 -0.237801 7.75808 -0.208041 0.968417 0.144218 -12.6047 -6.10436 0.0 0.0 0.0 -11.7821 22.4093 3.50447 -24.7357 0.209449 3.76074 40.5553 -5.03176 -4.97942 0.320885 -0.0 -0.0 -0.0 0.0 -0.0 34.945 14.4591 -5.07631 -7.301 -0.23103 -1.09591 -16.9271 -20.1822 -2.59258 -37.5227 0.0 0.0 0.0 0.0 0.0 
1460.67 704.278 -637.521 175.241 -78.0436 174.211 -0.172758 -0.183899 -0.44461 -0.172661 -0.155235 -0.455411 -0.171341 -0.0546246 -0.47803 -0.171636 -0.129434 -0.463404 -4.76733 10.2393 2.06017 -4.69502 17.266 3.83773 -0.0 0.0 -0.0 5.3079 22.5935 10.084 4.7771 -37.3496 56.2692 2.3634 -49.4906 1.08943 -82.9127 -8.19004 5.23106 -3.37401 25.3452 -8.97033 -0.0 0.0 -0.0 7.13293 21.0806 -12.9798 -27.853 5.34448 -65.5101 1.01916 26.7869 -0.24268 7.79282 -0.208676 0.972809 0.202646 -12.774 -6.54129 0.0 0.0 0.0 -11.9852 22.3437 3.52643 -24.9941 0.203032 3.79988 40.4859 -5.13653 -4.97513 0.429731 -0.0 -0.0 -0.0 0.0 -0.0 34.1132 14.4632 -5.37746 -7.96577 -0.245089 -1.19696 -17.3127 -20.1624 -2.6521 -37.5177 0.0 0.0 0.0 0.0 0.0 
1486.66 710.71 -629.331 174.026 -79.1306 173.397 -0.225595 -0.104759 -0.324586 -0.225541 -0.0838929 -0.330594 -0.225013 -0.011198 -0.340888 -0.22517 -0.0648941 -0.334842 -4.44535 10.144 1.89871 -4.36529 17.1699 3.61534 -0.0 0.0 -0.0 4.24553 22.2449 8.57528 4.17712 -36.8095 57.4258 2.27191 -48.3708 1.02045 -82.748 -8.1693 5.23431 -3.30768 25.0523 -8.76246 -0.0 0.0 -0.0 7.32318 21.4353 -13.3663 -26.6395 5.65243 -65.4009 1.03363 27.1131 -0.249238 7.93701 -0.211284 0.991044 0.266585 -12.8944 -6.99367 0.0 0.0 0.0 -11.4705 22.2482 3.8757 -25.184 0.198206 3.82861 39.7885 -5.12218 -4.91519 0.560162 -0.0 -0.0 -0.0 0.0 -0.0 32.1735 14.1922 -5.99638 -8.80449 -0.261152 -1.32466 -17.565 -19.8504 -2.68824 -37.4698 0.0 0.0 0.0 0.0 0.0 
